<svg width="16" height="16" viewBox="0 0 16 16" fill="none" xmlns="http://www.w3.org/2000/svg">
<path fill-rule="evenodd" clip-rule="evenodd" d="M13.1897 11.3308C14.7621 10.5399 15.7955 9.3751 15.7966 7.99936C15.7976 6.62229 14.7643 5.45843 13.1881 4.67036L6.64072 1.39666C5.49452 0.825062 4.46396 0.484825 3.58653 0.401426C2.7124 0.318339 1.88687 0.484712 1.31058 1.061C0.73413 1.63745 0.568193 2.46288 0.652161 3.33663C0.736432 4.21353 1.07762 5.2424 1.65075 6.38715L2.45766 8.00098L1.65075 9.6148C1.07762 10.7596 0.736671 11.7892 0.652929 12.6666C0.569476 13.541 0.736226 14.3666 1.31275 14.9431C1.88927 15.5196 2.71488 15.6864 3.58926 15.6029C4.46675 15.5192 5.49611 15.1784 6.64107 14.6051L13.1881 11.3316L13.1897 11.3308ZM12.5297 5.98726C13.8917 6.6683 14.3246 7.43916 14.3242 7.99826C14.3238 8.55854 13.8883 9.33106 12.5291 10.015L12.5281 10.0155L5.98227 13.2884C4.92645 13.817 4.07931 14.0771 3.44937 14.1373C2.81631 14.1977 2.50321 14.0514 2.35385 13.902C2.2045 13.7527 2.05819 13.4396 2.11861 12.8065C2.17874 12.1766 2.4387 11.3298 2.96731 10.2739L3.8052 8.59815L7.7873 8.5926C8.19387 8.59203 8.52301 8.26197 8.52244 7.8554C8.52188 7.44882 8.19182 7.11969 7.78524 7.12025L3.6663 7.126L2.96748 5.72836C2.43877 4.67233 2.17826 3.82542 2.11775 3.19579C2.05694 2.56301 2.20298 2.25081 2.35169 2.10211C2.50055 1.95324 2.81337 1.80692 3.44721 1.86716C4.07768 1.92709 4.92527 2.1865 5.98255 2.7137L12.5297 5.98726Z" fill="#292D32"/>
</svg>
