<svg width="17" height="16" viewBox="0 0 17 16" fill="none" xmlns="http://www.w3.org/2000/svg">
<path fill-rule="evenodd" clip-rule="evenodd" d="M4.16972 5.06422C4.16972 3.88872 5.12266 2.93578 6.29817 2.93578C7.47367 2.93578 8.4266 3.88872 8.4266 5.06422C8.4266 6.23973 7.47367 7.19266 6.29817 7.19266C5.12266 7.19266 4.16972 6.23973 4.16972 5.06422ZM6.29817 4.25688C5.85228 4.25688 5.49083 4.61834 5.49083 5.06422C5.49083 5.5101 5.85228 5.87156 6.29817 5.87156C6.74405 5.87156 7.1055 5.5101 7.1055 5.06422C7.1055 4.61834 6.74405 4.25688 6.29817 4.25688Z" fill="#161616"/>
<path fill-rule="evenodd" clip-rule="evenodd" d="M1.88613 1.38613C2.89631 0.375957 4.39815 0 6.29817 0H10.7018C12.6018 0 14.1037 0.375957 15.1139 1.38613C16.124 2.39631 16.5 3.89815 16.5 5.79817V9.3872C16.5001 9.39229 16.5001 9.39739 16.5 9.40248V10.2018C16.5 12.1018 16.124 13.6037 15.1139 14.6139C14.1037 15.624 12.6018 16 10.7018 16H6.29817C4.39815 16 2.89631 15.624 1.88613 14.6139C0.875957 13.6037 0.5 12.1018 0.5 10.2018V5.79817C0.5 3.89815 0.875957 2.39631 1.88613 1.38613ZM15.1789 7.95642V5.79817C15.1789 4.02845 14.8209 2.96149 14.1797 2.32029C13.5385 1.67909 12.4715 1.3211 10.7018 1.3211H6.29817C4.52845 1.3211 3.46149 1.67909 2.82029 2.32029C2.17909 2.96149 1.8211 4.02845 1.8211 5.79817V10.2018C1.8211 10.9402 1.88342 11.5563 2.00264 12.0701L4.90247 10.1232C5.7228 9.57284 6.88693 9.6274 7.63875 10.2733L7.64435 10.2781L7.88329 10.4882C8.20856 10.7652 8.76567 10.7646 9.08981 10.4861L12.143 7.86594C12.9631 7.16176 14.2536 7.16163 15.0736 7.86594L15.1789 7.95642ZM2.51858 13.315L5.63868 11.2201C5.97706 10.9933 6.48474 11.0258 6.77546 11.2734L7.01445 11.4834L7.02008 11.4883C7.84003 12.1926 9.13036 12.1926 9.95039 11.4885L13.0036 8.86829C13.3285 8.58918 13.8878 8.58898 14.2127 8.86809L15.1789 9.69792V10.2018C15.1789 11.9715 14.8209 13.0385 14.1797 13.6797C13.5385 14.3209 12.4715 14.6789 10.7018 14.6789H6.29817C4.52845 14.6789 3.46149 14.3209 2.82029 13.6797C2.71144 13.5709 2.61074 13.4497 2.51858 13.315Z" fill="#161616"/>
</svg>
