<svg width="24" height="18" viewBox="0 0 24 18" fill="none" xmlns="http://www.w3.org/2000/svg">
<path d="M10.0251 2.88388C10.5132 2.39573 10.5132 1.60427 10.0251 1.11612C9.5369 0.627961 8.74545 0.627961 8.25729 1.11612L1.11612 8.25729C0.881696 8.49171 0.75 8.80966 0.75 9.14118C0.75 9.4727 0.881696 9.79064 1.11612 10.0251L8.25729 17.1662C8.74545 17.6544 9.5369 17.6544 10.0251 17.1662C10.5132 16.6781 10.5132 15.8866 10.0251 15.3985L5.0177 10.3911H22C22.6903 10.3911 23.25 9.83147 23.25 9.14111C23.25 8.45076 22.6903 7.89111 22 7.89111H5.01783L10.0251 2.88388Z" fill="#161616"/>
</svg>
