<svg width="16" height="16" viewBox="0 0 16 16" fill="none" xmlns="http://www.w3.org/2000/svg">
<path d="M6.14973 5.06422C6.14973 4.69941 6.44547 4.40367 6.81028 4.40367H9.01211C9.37693 4.40367 9.67266 4.69941 9.67266 5.06422C9.67266 5.42903 9.37693 5.72477 9.01211 5.72477H6.81028C6.44547 5.72477 6.14973 5.42903 6.14973 5.06422Z" fill="#161616"/>
<path fill-rule="evenodd" clip-rule="evenodd" d="M7.9112 6.97248C6.23262 6.97248 4.86533 8.33978 4.86533 10.0183C4.86533 11.6969 6.23262 13.0642 7.9112 13.0642C9.58977 13.0642 10.9571 11.6969 10.9571 10.0183C10.9571 8.33978 9.58977 6.97248 7.9112 6.97248ZM6.18643 10.0183C6.18643 9.0694 6.96225 8.29358 7.9112 8.29358C8.86015 8.29358 9.63597 9.0694 9.63597 10.0183C9.63597 10.9673 8.86015 11.7431 7.9112 11.7431C6.96225 11.7431 6.18643 10.9673 6.18643 10.0183Z" fill="#161616"/>
<path fill-rule="evenodd" clip-rule="evenodd" d="M5.58261 0.457746C6.01771 0.188189 6.54601 0 7.07453 0H8.75527C9.28117 0 9.80791 0.188888 10.2414 0.458148C10.6751 0.727555 11.0763 1.11511 11.3118 1.5809L11.3139 1.58512L11.8392 2.64318C11.935 2.82409 12.1221 2.93578 12.3149 2.93578C14.2871 2.93578 15.8535 4.5991 15.7264 6.56663L15.7264 6.56749L15.3448 12.6287C15.291 13.4815 15.032 14.3355 14.4275 14.9816C13.8103 15.6412 12.912 16 11.7571 16H4.06536C2.91071 16 2.01079 15.6414 1.39264 14.9821C0.787016 14.3361 0.527634 13.4819 0.47758 12.6272L0.477486 12.6256L0.0960998 6.56749C-0.0310772 4.59986 1.53525 2.93578 3.50756 2.93578C3.7004 2.93578 3.88748 2.82409 3.98322 2.64318L4.51069 1.5809C4.74621 1.11499 5.14754 0.727292 5.58261 0.457746ZM5.69066 2.17506L5.16341 3.23689L5.15819 3.24718C4.84224 3.8565 4.20868 4.25688 3.50756 4.25688C2.29476 4.25688 1.33648 5.27931 1.41443 6.48205L1.41451 6.48327L1.79636 12.5487C1.8346 13.2054 2.02665 13.7267 2.35643 14.0785C2.67405 14.4173 3.19432 14.6789 4.06536 14.6789H11.7571C12.6279 14.6789 13.1461 14.4175 13.4628 14.079C13.7922 13.7269 13.9847 13.2047 14.0263 12.5457L14.4079 6.48327L14.408 6.48205C14.486 5.27931 13.5277 4.25688 12.3149 4.25688C11.6138 4.25688 10.9802 3.85651 10.6643 3.24718L10.6591 3.23689L10.1318 2.17508C10.0293 1.97347 9.82171 1.75266 9.54435 1.58038C9.26592 1.40744 8.97798 1.3211 8.75527 1.3211H7.07453C6.84709 1.3211 6.55705 1.40814 6.27838 1.58079C6.00054 1.75292 5.79309 1.97358 5.69066 2.17506Z" fill="#161616"/>
</svg>
