<svg width="17" height="18" viewBox="0 0 17 18" fill="none" xmlns="http://www.w3.org/2000/svg">
<path d="M4.23451 7.07886C3.8697 7.07886 3.57396 7.3746 3.57396 7.73942C3.57396 8.10423 3.8697 8.39997 4.23451 8.39997H8.63818C9.003 8.39997 9.29873 8.10423 9.29873 7.73942C9.29873 7.3746 9.003 7.07886 8.63818 7.07886H4.23451Z" fill="#161616"/>
<path d="M3.57396 11.4091C3.57396 11.0443 3.8697 10.7486 4.23451 10.7486H6.15745C6.52226 10.7486 6.818 11.0443 6.818 11.4091C6.818 11.774 6.52226 12.0697 6.15745 12.0697H4.23451C3.8697 12.0697 3.57396 11.774 3.57396 11.4091Z" fill="#161616"/>
<path fill-rule="evenodd" clip-rule="evenodd" d="M6.43635 0.000309647L6.38043 0.000165371C6.05906 -0.00104916 5.50757 -0.00313333 5.06077 0.294735C4.63611 0.577838 4.41735 1.03088 4.34051 1.60296C3.22426 1.7085 2.32616 2.1054 1.68625 2.79453C0.938632 3.59965 0.638184 4.70238 0.638184 5.90455V12.1431C0.638184 13.3453 0.938632 14.448 1.68625 15.2531C2.44209 16.0671 3.55815 16.4734 4.96846 16.4734H9.66462C10.3709 16.9383 11.2163 17.2073 12.1244 17.2073C13.2635 17.2073 14.296 16.7878 15.0873 16.0862C15.446 15.7869 15.7475 15.4228 15.9865 15.0148C16.3991 14.3414 16.6382 13.5345 16.6382 12.6935C16.6382 11.3762 16.073 10.1885 15.1703 9.36434V5.90455C15.1703 4.70238 14.8698 3.59965 14.1222 2.79453C13.4823 2.1054 12.5842 1.7085 11.468 1.60296C11.3911 1.03088 11.1724 0.577838 10.7477 0.294735C10.3009 -0.00313333 9.74941 -0.00104916 9.42804 0.000165371L9.37213 0.000309647H6.43635ZM11.4413 2.92814C11.3992 3.12247 11.3276 3.32211 11.2061 3.50433C10.841 4.05198 10.1933 4.25719 9.37213 4.25719H6.43635L6.38043 4.25734C6.05906 4.25855 5.50757 4.26063 5.06077 3.96276C4.70559 3.72598 4.49445 3.37032 4.38991 2.92557C3.56264 3.01674 3.01329 3.30692 2.65434 3.69347C2.2093 4.17275 1.95928 4.90489 1.95928 5.90455V12.1431C1.95928 13.1427 2.2093 13.8749 2.65434 14.3542C3.09116 14.8246 3.80996 15.1523 4.96846 15.1523H8.3489C8.32034 15.1085 8.29249 15.0643 8.26535 15.0196C7.85088 14.3453 7.61066 13.5365 7.61066 12.6935C7.61066 11.456 8.10916 10.3192 8.93272 9.50428C9.05037 9.38786 9.17466 9.278 9.30507 9.17536C10.0799 8.54842 11.0684 8.17978 12.1244 8.17978C12.7347 8.17978 13.3176 8.30046 13.8492 8.52061V5.90455C13.8492 4.90489 13.5992 4.17275 13.1541 3.69347C12.7985 3.31047 12.2559 3.02209 11.4413 2.92814ZM5.62901 2.12875C5.62901 1.49281 5.78543 1.39886 5.79331 1.39412C5.81718 1.37821 5.86932 1.35393 5.98466 1.33855C6.10538 1.32246 6.24365 1.32141 6.43635 1.32141H9.37213C9.56483 1.32141 9.70309 1.32246 9.82382 1.33855C9.93915 1.35393 9.99102 1.37804 10.0149 1.39396C10.0228 1.39869 10.1795 1.49281 10.1795 2.12875C10.1795 2.32145 10.1784 2.45971 10.1623 2.58044C10.1469 2.69577 10.1228 2.74765 10.1069 2.77152C10.1022 2.7794 10.0081 2.93609 9.37213 2.93609H6.43635C6.24365 2.93609 6.10538 2.93504 5.98466 2.91895C5.86932 2.90357 5.81745 2.87946 5.79358 2.86354C5.7857 2.85881 5.62901 2.76469 5.62901 2.12875ZM14.0978 10.1861C13.5591 9.75629 12.8743 9.50088 12.1244 9.50088C11.3768 9.50088 10.6789 9.76209 10.1332 10.2047L10.125 10.2112C10.0337 10.2829 9.94657 10.3598 9.86401 10.4413C9.28609 11.0121 8.93176 11.8134 8.93176 12.6935C8.93176 13.2883 9.10216 13.8587 9.39158 14.329L9.3938 14.3326C9.62216 14.7091 9.91501 15.0306 10.2569 15.2766L10.2616 15.2799C10.7827 15.6616 11.4246 15.8862 12.1244 15.8862C12.9335 15.8862 13.659 15.5895 14.217 15.0922C14.2229 15.087 14.2288 15.0818 14.2349 15.0768C14.4721 14.8801 14.6799 14.6327 14.8493 14.3424L14.8573 14.329C15.1467 13.8587 15.3171 13.2883 15.3171 12.6935C15.3171 11.6782 14.8437 10.773 14.1013 10.1888L14.0978 10.1861Z" fill="#161616"/>
<path d="M13.9885 11.2409C14.1849 11.4373 14.1849 11.7557 13.9885 11.9521L11.7942 14.1463C11.6999 14.2406 11.572 14.2936 11.4386 14.2936C11.3053 14.2936 11.1774 14.2406 11.0831 14.1463L10.2602 13.3235C10.0638 13.1271 10.0638 12.8087 10.2602 12.6123C10.4566 12.416 10.775 12.416 10.9713 12.6123L11.4386 13.0796L13.2773 11.2409C13.4737 11.0445 13.7921 11.0445 13.9885 11.2409Z" fill="#161616"/>
</svg>
