<svg width="20" height="20" viewBox="0 0 20 20" fill="none" xmlns="http://www.w3.org/2000/svg">
<path d="M13.6665 7.07953C12.9761 7.07953 12.4165 7.63918 12.4165 8.32953C12.4165 9.01989 12.9761 9.57953 13.6665 9.57953H13.6747C14.3651 9.57953 14.9247 9.01989 14.9247 8.32953C14.9247 7.63918 14.3651 7.07953 13.6747 7.07953H13.6665Z" fill="#161616"/>
<path d="M8.74588 8.32953C8.74588 7.63918 9.30552 7.07953 9.99588 7.07953H10.0041C10.6945 7.07953 11.2541 7.63918 11.2541 8.32953C11.2541 9.01989 10.6945 9.57953 10.0041 9.57953H9.99588C9.30552 9.57953 8.74588 9.01989 8.74588 8.32953Z" fill="#161616"/>
<path d="M6.32526 7.07953C5.6349 7.07953 5.07526 7.63918 5.07526 8.32953C5.07526 9.01989 5.6349 9.57953 6.32526 9.57953H6.3335C7.02385 9.57953 7.5835 9.01989 7.5835 8.32953C7.5835 7.63918 7.02385 7.07953 6.3335 7.07953H6.32526Z" fill="#161616"/>
<path fill-rule="evenodd" clip-rule="evenodd" d="M1.50331 1.55043C2.48175 0.571984 3.84906 0.0471191 5.41284 0.0471191H14.5872C16.1509 0.0471191 17.5183 0.571984 18.4967 1.55043C19.4751 2.52887 20 3.89618 20 5.45996V10.9646C20 12.5283 19.4751 13.8956 18.4967 14.8741C17.6947 15.6761 16.6314 16.1733 15.4128 16.3266V17.5058C15.4128 18.9036 13.8578 19.7214 12.7071 18.9543L8.83304 16.3774H5.41284C3.84906 16.3774 2.48175 15.8525 1.50331 14.8741C0.524865 13.8956 0 12.5283 0 10.9646V5.45996C0 3.89618 0.524865 2.52887 1.50331 1.55043ZM2.67101 2.71812C2.04394 3.34519 1.65138 4.27145 1.65138 5.45996V10.9646C1.65138 12.1531 2.04394 13.0793 2.67101 13.7064C3.29807 14.3335 4.22433 14.726 5.41284 14.726H9.08257C9.24529 14.726 9.40438 14.7741 9.53987 14.8642L13.6232 17.5803C13.6435 17.5939 13.6575 17.5962 13.6677 17.5965C13.6807 17.5969 13.6976 17.5937 13.715 17.5845C13.7323 17.5752 13.7439 17.5633 13.7503 17.553C13.7552 17.5451 13.7615 17.5321 13.7615 17.5058V15.5517C13.7615 15.0957 14.1311 14.726 14.5872 14.726C15.7757 14.726 16.7019 14.3335 17.329 13.7064C17.9561 13.0793 18.3486 12.1531 18.3486 10.9646V5.45996C18.3486 4.27145 17.9561 3.34519 17.329 2.71812C16.7019 2.09106 15.7757 1.6985 14.5872 1.6985H5.41284C4.22433 1.6985 3.29807 2.09106 2.67101 2.71812Z" fill="#161616"/>
</svg>
