<svg width="21" height="18" viewBox="0 0 21 18" fill="none" xmlns="http://www.w3.org/2000/svg">
<path d="M7.95861 3.25551H18.359H18.423L18.4075 3.31763L16.8024 9.73997L16.793 9.77784H16.7539H8.39266C7.36524 9.77784 6.47679 9.06479 6.25354 8.06245L6.25353 8.06242L4.85888 1.78259L7.95861 3.25551ZM7.95861 3.25551C7.69664 3.24327 7.44941 3.13066 7.26822 2.94101C7.08676 2.75109 6.98551 2.49853 6.98551 2.23587C6.98551 1.9732 7.08676 1.72064 7.26822 1.53072C7.44941 1.34107 7.69664 1.22846 7.95861 1.21622H18.359C18.6768 1.21612 18.9904 1.28848 19.276 1.4278C19.5616 1.56711 19.8117 1.76971 20.0073 2.02019C20.2028 2.27067 20.3387 2.56244 20.4046 2.87332C20.4705 3.1842 20.4646 3.50601 20.3874 3.81428L20.3874 3.8143L18.7824 10.2344C18.6694 10.6868 18.4083 11.0885 18.0408 11.3755C17.6732 11.6625 17.2203 11.8183 16.7539 11.8182H8.39266C7.42988 11.8184 6.49586 11.4901 5.74484 10.8877C4.99382 10.2853 4.47073 9.44475 4.26195 8.50488L4.21314 8.51573L4.26195 8.50488L2.86618 2.22502L2.85748 2.18587H2.81737H1.53706C1.27246 2.17712 1.0216 2.06593 0.837432 1.87572C0.653076 1.68532 0.55 1.43069 0.55 1.16566C0.55 0.900638 0.653076 0.646003 0.837432 0.455605C1.0216 0.265399 1.27246 0.1542 1.53706 0.145459H2.81737C3.79789 0.145459 4.64579 0.825937 4.85888 1.78256L7.95861 3.25551ZM8.25687 17.8544C7.67973 17.8544 7.12623 17.6251 6.71813 17.217C6.31003 16.8089 6.08076 16.2554 6.08076 15.6782C6.08076 15.1011 6.31003 14.5476 6.71813 14.1395C7.12623 13.7314 7.67973 13.5021 8.25687 13.5021C8.83401 13.5021 9.38751 13.7314 9.79561 14.1395C10.2037 14.5476 10.433 15.1011 10.433 15.6782C10.433 16.2554 10.2037 16.8089 9.79561 17.217C9.38751 17.6251 8.83401 17.8544 8.25687 17.8544ZM16.0483 17.8544C15.4711 17.8544 14.9176 17.6251 14.5095 17.217C14.1014 16.8089 13.8721 16.2554 13.8721 15.6782C13.8721 15.1011 14.1014 14.5476 14.5095 14.1395C14.9176 13.7314 15.4711 13.5021 16.0483 13.5021C16.6254 13.5021 17.1789 13.7314 17.587 14.1395C17.9951 14.5476 18.2244 15.1011 18.2244 15.6782C18.2244 16.2554 17.9951 16.8089 17.587 17.217C17.1789 17.6251 16.6254 17.8544 16.0483 17.8544Z" fill="#161616" stroke="white" stroke-width="0.1"/>
</svg>
