<svg width="14" height="15" viewBox="0 0 14 15" fill="none" xmlns="http://www.w3.org/2000/svg">
<path d="M9.53394 0.624187C10.3118 0.524723 11.0987 0.8428 11.8983 1.59517L11.8992 1.59604C12.7015 2.35476 13.0668 3.12443 13.012 3.90835C12.959 4.66585 12.5199 5.30699 12.0191 5.83602L11.5505 4.85319C11.8339 4.49599 11.9918 4.16171 12.0144 3.83862C12.0413 3.45431 11.8833 2.95747 11.2127 2.32311C10.7323 1.87119 10.3369 1.67812 10.0106 1.62376L9.53394 0.624187Z" fill="#161616"/>
<path fill-rule="evenodd" clip-rule="evenodd" d="M10.0106 1.62376L9.53394 0.624187C8.7823 0.720303 8.16695 1.19299 7.66593 1.72224L6.76033 2.68078C6.75493 2.68624 6.74967 2.69182 6.74453 2.69751L2.19225 7.51594L2.19127 7.51698C2.03928 7.67877 1.91085 7.89281 1.81671 8.09466C1.72224 8.29724 1.64219 8.53077 1.61341 8.74657L1.61226 8.75592L1.36559 10.9159L1.36542 10.9174C1.30731 11.4404 1.46417 11.9313 1.81914 12.2679C2.17461 12.6051 2.67361 12.7351 3.19398 12.6454L5.33988 12.2788L5.34321 12.2783C5.55974 12.2398 5.79038 12.1485 5.98978 12.0419C6.18664 11.9367 6.3943 11.7944 6.54853 11.6265L11.0396 6.87286C11.092 6.83535 11.1372 6.78783 11.1719 6.73276L12.0191 5.83602L11.5505 4.85319L10.0106 1.62376ZM10.0106 1.62376L11.5505 4.85319C11.4737 4.9499 11.3875 5.04861 11.2926 5.14891L10.5501 5.93479C9.11693 5.68975 7.97227 4.60716 7.65423 3.19076L8.39213 2.40972C8.83768 1.93913 9.2525 1.66832 9.66078 1.61611C9.76759 1.60245 9.88394 1.60267 10.0106 1.62376ZM6.86364 4.02758C7.35863 5.33532 8.42904 6.3459 9.76134 6.76968L5.81891 10.9426L5.81288 10.9491C5.76077 11.0063 5.65667 11.0861 5.51828 11.16C5.38178 11.233 5.2531 11.2784 5.16958 11.2935L3.02484 11.6598L3.02408 11.6599C2.77112 11.7035 2.60345 11.6336 2.50725 11.5423C2.41064 11.4507 2.33089 11.2852 2.35923 11.0286L2.3593 11.0279L2.60517 8.87486C2.61709 8.79048 2.65684 8.6592 2.72301 8.5173C2.7904 8.37279 2.86513 8.26033 2.91978 8.20202L6.86364 4.02758Z" fill="#161616"/>
<path d="M1.18896 13.8327C0.912822 13.8327 0.688965 14.0565 0.688965 14.3327C0.688965 14.6088 0.912822 14.8327 1.18896 14.8327H13.189C13.4651 14.8327 13.689 14.6088 13.689 14.3327C13.689 14.0565 13.4651 13.8327 13.189 13.8327H1.18896Z" fill="#161616"/>
</svg>
