<svg width="16" height="14" viewBox="0 0 16 14" fill="none" xmlns="http://www.w3.org/2000/svg">
<path d="M12.082 5.21337C12.367 4.9857 12.4135 4.57006 12.1858 4.28501C11.9582 3.99996 11.5425 3.95345 11.2575 4.18112L8.96106 6.01533C8.44605 6.42495 7.54747 6.42536 7.03231 6.0159L4.74332 4.18177C4.45863 3.95365 4.04291 3.99951 3.8148 4.2842C3.58668 4.56889 3.63254 4.98461 3.91723 5.21273L6.20713 7.04759L6.20876 7.04889C7.20551 7.84242 8.78714 7.84242 9.78389 7.04889L12.082 5.21337Z" fill="#161616"/>
<path fill-rule="evenodd" clip-rule="evenodd" d="M4.33028 0C3.1281 0 2.02538 0.300448 1.22025 1.04806C0.406267 1.80391 0 2.91997 0 4.33028V9.46789C0 10.8782 0.406267 11.9943 1.22025 12.7501C2.02538 13.4977 3.1281 13.7982 4.33028 13.7982H11.6697C12.8719 13.7982 13.9746 13.4977 14.7797 12.7501C15.5937 11.9943 16 10.8782 16 9.46789V4.33028C16 2.91997 15.5937 1.80391 14.7797 1.04806C13.9746 0.300448 12.8719 0 11.6697 0H4.33028ZM1.3211 4.33028C1.3211 3.17177 1.64878 2.45297 2.1192 2.01616C2.59848 1.57111 3.33062 1.3211 4.33028 1.3211H11.6697C12.6694 1.3211 13.4015 1.57111 13.8808 2.01616C14.3512 2.45297 14.6789 3.17177 14.6789 4.33028V9.46789C14.6789 10.6264 14.3512 11.3452 13.8808 11.782C13.4015 12.2271 12.6694 12.4771 11.6697 12.4771H4.33028C3.33062 12.4771 2.59848 12.2271 2.1192 11.782C1.64878 11.3452 1.3211 10.6264 1.3211 9.46789V4.33028Z" fill="#161616"/>
</svg>
