<svg width="16" height="15" viewBox="0 0 16 15" fill="none" xmlns="http://www.w3.org/2000/svg">
<path d="M9.46789 3.66972C9.10308 3.66972 8.80734 3.96546 8.80734 4.33028C8.80734 4.69509 9.10308 4.99083 9.46789 4.99083H13.1376C13.5024 4.99083 13.7982 4.69509 13.7982 4.33028C13.7982 3.96546 13.5024 3.66972 13.1376 3.66972H9.46789Z" fill="#161616"/>
<path d="M9.54128 7.26606C9.54128 6.90124 9.83702 6.6055 10.2018 6.6055H13.1376C13.5024 6.6055 13.7982 6.90124 13.7982 7.26606C13.7982 7.63087 13.5024 7.92661 13.1376 7.92661H10.2018C9.83702 7.92661 9.54128 7.63087 9.54128 7.26606Z" fill="#161616"/>
<path d="M11.6697 9.54129C11.3049 9.54129 11.0092 9.83702 11.0092 10.2018C11.0092 10.5666 11.3049 10.8624 11.6697 10.8624H13.1376C13.5024 10.8624 13.7982 10.5666 13.7982 10.2018C13.7982 9.83702 13.5024 9.54129 13.1376 9.54129H11.6697Z" fill="#161616"/>
<path fill-rule="evenodd" clip-rule="evenodd" d="M3.44216 5.41646C3.44216 4.31797 4.33266 3.42747 5.43115 3.42747C6.52964 3.42747 7.42014 4.31797 7.42014 5.41646C7.42014 6.51495 6.52964 7.40545 5.43115 7.40545C4.33266 7.40545 3.44216 6.51495 3.44216 5.41646ZM5.43115 4.74857C5.06228 4.74857 4.76326 5.04759 4.76326 5.41646C4.76326 5.78532 5.06228 6.08435 5.43115 6.08435C5.80001 6.08435 6.09904 5.78532 6.09904 5.41646C6.09904 5.04759 5.80002 4.74857 5.43115 4.74857Z" fill="#161616"/>
<path d="M8.65749 10.3806C8.52426 9.00068 7.43004 7.91538 6.05146 7.79012C5.64155 7.74935 5.22488 7.74957 4.80938 7.79027C3.43667 7.92306 2.33857 8.99605 2.20489 10.3806C2.16983 10.7437 2.43578 11.0665 2.7989 11.1015C3.16203 11.1366 3.48482 10.8707 3.51988 10.5075C3.59169 9.76378 4.18139 9.17815 4.93688 9.10521L4.93785 9.10511C5.26973 9.07258 5.60042 9.0727 5.92326 9.10499L5.93001 9.10563C6.67822 9.17271 7.27035 9.76014 7.34251 10.5075C7.37757 10.8707 7.70036 11.1366 8.06348 11.1015C8.4266 11.0665 8.69255 10.7437 8.65749 10.3806Z" fill="#161616"/>
<path fill-rule="evenodd" clip-rule="evenodd" d="M4.33028 0C2.86711 0 1.68793 0.166897 0.927416 0.927416C0.166897 1.68793 0 2.86711 0 4.33028V10.2018C0 11.665 0.166897 12.8442 0.927416 13.6047C1.68793 14.3652 2.86711 14.5321 4.33028 14.5321H11.6697C13.1329 14.5321 14.3121 14.3652 15.0726 13.6047C15.8331 12.8442 16 11.665 16 10.2018V4.33028C16 2.86711 15.8331 1.68793 15.0726 0.927416C14.3121 0.166897 13.1329 0 11.6697 0H4.33028ZM1.3211 4.33028C1.3211 2.85766 1.52118 2.20197 1.86158 1.86158C2.20197 1.52118 2.85766 1.3211 4.33028 1.3211H11.6697C13.1423 1.3211 13.798 1.52118 14.1384 1.86158C14.4788 2.20197 14.6789 2.85766 14.6789 4.33028V10.2018C14.6789 11.6744 14.4788 12.3301 14.1384 12.6705C13.798 13.0109 13.1423 13.211 11.6697 13.211H4.33028C2.85766 13.211 2.20197 13.0109 1.86158 12.6705C1.52118 12.3301 1.3211 11.6744 1.3211 10.2018V4.33028Z" fill="#161616"/>
</svg>
