<svg width="20" height="21" viewBox="0 0 20 21" fill="none" xmlns="http://www.w3.org/2000/svg">
<path d="M19.6 11.178C19.6 10.3558 19.5333 9.75576 19.3889 9.13354H10V12.8446H15.5111C15.4 13.7669 14.8 15.1558 13.4666 16.089L13.448 16.2133L16.4165 18.513L16.6222 18.5335C18.5111 16.7891 19.6 14.2224 19.6 11.178Z" fill="#4285F4"/>
<path d="M9.99977 20.9557C12.6997 20.9557 14.9664 20.0668 16.622 18.5335L13.4664 16.089C12.622 16.6779 11.4886 17.089 9.99977 17.089C7.35534 17.089 5.11091 15.3446 4.31083 12.9335L4.19356 12.9434L1.10677 15.3323L1.06641 15.4445C2.71083 18.7112 6.08862 20.9557 9.99977 20.9557Z" fill="#34A853"/>
<path d="M4.31107 12.9336C4.09996 12.3114 3.97779 11.6446 3.97779 10.9558C3.97779 10.2669 4.09996 9.60021 4.29996 8.978L4.29437 8.84548L1.1689 6.41821L1.06664 6.46685C0.388893 7.82243 0 9.34468 0 10.9558C0 12.5669 0.388893 14.0891 1.06664 15.4446L4.31107 12.9336Z" fill="#FBBC05"/>
<path d="M9.99976 4.82233C11.8775 4.82233 13.1442 5.63344 13.8664 6.31126L16.6886 3.55569C14.9553 1.94458 12.6997 0.955688 9.99976 0.955688C6.08862 0.955688 2.71083 3.20012 1.06641 6.46676L4.29973 8.9779C5.11091 6.5668 7.35534 4.82233 9.99976 4.82233Z" fill="#EB4335"/>
</svg>
