<svg width="21" height="20" viewBox="0 0 21 20" fill="none" xmlns="http://www.w3.org/2000/svg">
<path fill-rule="evenodd" clip-rule="evenodd" d="M20.4461 15.9724C20.4461 18.2045 18.5398 20 16.2212 20H14.39C13.2385 19.974 12.3257 19.1019 12.3257 17.9912V15.1927C12.3257 14.9912 12.1457 14.8014 11.8927 14.8014H9.15375C8.90988 14.803 8.7296 14.992 8.7296 15.1927V17.9821C8.7296 18.0632 8.71925 18.1441 8.69633 18.2229C8.57075 19.2311 7.67316 20 6.6054 20H4.77906C2.46045 20 0.554199 18.2045 0.554199 15.9724V8.0444L0.554211 8.04211C0.564443 7.06733 1.03348 6.17667 1.83648 5.59272L8.03742 0.822636L8.0385 0.821811C9.48148 -0.273836 11.4917 -0.273575 12.932 0.820421L19.178 5.59545C19.964 6.17032 20.4328 7.05891 20.4461 8.02228L20.4461 8.0253L20.4461 15.9724ZM18.0455 7.02003L18.042 7.01747L11.7839 2.23394C11.0213 1.65518 9.95245 1.65529 9.18659 2.23601L2.97207 7.01523L2.96754 7.01862C2.60835 7.2802 2.41483 7.65387 2.41049 8.05191V15.9724C2.41049 17.1884 3.46018 18.2005 4.77906 18.2005H6.6054C6.75818 18.2005 6.85527 18.0877 6.85527 17.9821C6.85527 17.9206 6.86196 17.8604 6.8733 17.8036V15.1927C6.8733 13.9804 7.90513 13.0099 9.14704 13.0019L9.14842 13.0019L11.8927 13.0019C13.1437 13.0019 14.182 13.9734 14.182 15.1927V17.9912C14.182 18.0922 14.2682 18.1964 14.4146 18.2005H16.2212C17.5401 18.2005 18.5898 17.1884 18.5898 15.9724V8.03692C18.5837 7.64585 18.3893 7.27209 18.0455 7.02003Z" fill="#009BDF"/>
</svg>
