<svg width="18" height="19" viewBox="0 0 18 19" fill="none" xmlns="http://www.w3.org/2000/svg">
<path d="M10.4157 6.97191C10.4157 6.46927 10.0083 6.0618 9.50562 6.0618C9.00298 6.0618 8.59551 6.46927 8.59551 6.97191V9.49032L6.50928 10.7421C6.07827 11.0007 5.93851 11.5597 6.19711 11.9907C6.45572 12.4217 7.01477 12.5615 7.44578 12.3029L9.97387 10.786C10.248 10.6216 10.4157 10.3253 10.4157 10.0056V6.97191Z" fill="#161616"/>
<path fill-rule="evenodd" clip-rule="evenodd" d="M9 0.5C6.88268 0.5 4.92553 1.2438 3.37735 2.47757C1.30498 4.12232 0 6.66742 0 9.5C0 14.4723 4.0277 18.5 9 18.5C11.2767 18.5 13.347 17.6423 14.938 16.2529L14.9404 16.2508C16.8054 14.6105 18 12.2018 18 9.5C18 4.5277 13.9723 0.5 9 0.5ZM4.51111 3.90158C5.75381 2.91102 7.31544 2.32022 9 2.32022C12.967 2.32022 16.1798 5.53298 16.1798 9.5C16.1798 11.6515 15.2312 13.5704 13.7396 14.8829C12.4588 16.0008 10.8081 16.6798 9 16.6798C5.03298 16.6798 1.82023 13.467 1.82023 9.5C1.82023 7.2363 2.86099 5.21091 4.50953 3.90284L4.51111 3.90158Z" fill="#161616"/>
</svg>
