<svg width="20" height="20" viewBox="0 0 20 20" fill="none" xmlns="http://www.w3.org/2000/svg">
<path d="M6.33021 9.35795C5.87421 9.35795 5.50454 9.72762 5.50454 10.1836C5.50454 10.6396 5.87421 11.0093 6.33021 11.0093H12.7521C13.2081 11.0093 13.5778 10.6396 13.5778 10.1836C13.5778 9.72762 13.2081 9.35795 12.7521 9.35795H6.33021Z" fill="#161616"/>
<path d="M6.33021 13.0276C5.87421 13.0276 5.50454 13.3973 5.50454 13.8533C5.50454 14.3093 5.87421 14.6789 6.33021 14.6789H10.3485C10.8045 14.6789 11.1742 14.3093 11.1742 13.8533C11.1742 13.3973 10.8045 13.0276 10.3485 13.0276H6.33021Z" fill="#161616"/>
<path fill-rule="evenodd" clip-rule="evenodd" d="M8.09515 0.00020671L8.16504 0.000387051H11.8347L11.9046 0.00020671C12.3063 -0.00131143 12.9956 -0.0039166 13.5541 0.368411C14.0628 0.707544 14.3352 1.24177 14.4415 1.91508C15.7357 2.06447 16.8798 2.44874 17.7148 3.35132C18.6941 4.4099 19.0823 6.00272 19.0823 8.16538V13.6699C19.0823 15.5193 18.8654 17.1768 17.8459 18.3419C16.8025 19.5343 15.1168 20 12.7521 20H7.24763C4.8829 20 3.19721 19.5343 2.15386 18.3419C1.13437 17.1768 0.91748 15.5193 0.91748 13.6699V8.16538C0.91748 6.00675 1.3059 4.41457 2.28458 3.35518C3.11928 2.45166 4.26308 2.06527 5.55821 1.91524C5.66453 1.24185 5.93686 0.70757 6.4456 0.368411C7.00409 -0.0039166 7.69344 -0.00131143 8.09515 0.00020671ZM5.58906 3.57567C4.58631 3.71204 3.93443 4.00284 3.49755 4.47574C2.94645 5.07229 2.56882 6.1406 2.56882 8.16538V13.6699C2.56882 15.4901 2.81064 16.5848 3.39662 17.2545C3.95874 17.8969 5.02529 18.3487 7.24763 18.3487H12.7521C14.9744 18.3487 16.041 17.8969 16.6031 17.2545C17.1891 16.5848 17.4309 15.4901 17.4309 13.6699V8.16538C17.4309 6.13546 17.0531 5.06778 16.5026 4.47272C16.0699 4.00498 15.4259 3.7165 14.4374 3.57911C14.3877 3.84708 14.2959 4.12715 14.1272 4.38033C13.6708 5.06487 12.8611 5.32138 11.8347 5.32138H8.16504L8.09515 5.32156C7.69344 5.32308 7.00409 5.32568 6.4456 4.95336C5.98023 4.64311 5.71268 4.16959 5.58906 3.57567ZM12.8438 2.67407C12.8438 2.67782 12.8438 2.68156 12.8438 2.6853C12.8437 2.91352 12.8419 3.07973 12.8224 3.22549C12.8032 3.36965 12.7731 3.43449 12.7532 3.46433C12.7472 3.47418 12.6296 3.67004 11.8347 3.67004H8.16504C7.92417 3.67004 7.75134 3.66873 7.60044 3.64861C7.45627 3.62939 7.39144 3.59925 7.3616 3.57936C7.35175 3.57344 7.15589 3.45579 7.15589 2.66088C7.15589 1.86598 7.35141 1.74854 7.36126 1.74262C7.3911 1.72273 7.45627 1.69238 7.60044 1.67316C7.75134 1.65304 7.92417 1.65173 8.16504 1.65173H11.8347C12.0756 1.65173 12.2484 1.65304 12.3993 1.67316C12.5435 1.69238 12.6083 1.72252 12.6381 1.74241C12.648 1.74833 12.8438 1.86597 12.8438 2.66088C12.8438 2.6653 12.8438 2.6697 12.8438 2.67407Z" fill="#161616"/>
</svg>
