<svg width="18" height="20" viewBox="0 0 18 20" fill="none" xmlns="http://www.w3.org/2000/svg">
<path fill-rule="evenodd" clip-rule="evenodd" d="M8.99986 4.76251C6.96252 4.76251 5.31094 6.41409 5.31094 8.45142C5.31094 10.4888 6.96252 12.1403 8.99986 12.1403C11.0372 12.1403 12.6888 10.4888 12.6888 8.45142C12.6888 6.41409 11.0372 4.76251 8.99986 4.76251ZM6.96269 8.45142C6.96269 7.32633 7.87476 6.41426 8.99986 6.41426C10.125 6.41426 11.037 7.32633 11.037 8.45142C11.037 9.57652 10.125 10.4886 8.99986 10.4886C7.87476 10.4886 6.96269 9.57652 6.96269 8.45142Z" fill="#161616"/>
<path fill-rule="evenodd" clip-rule="evenodd" d="M9.00381 2.15138e-06C12.7082 0.00250607 16.4951 2.18982 17.4952 6.60824C18.6526 11.7211 15.4597 15.9527 12.876 18.434C10.7107 20.523 7.28724 20.5208 5.11506 18.4346L5.11401 18.4336C2.53975 15.9526 -0.65289 11.7116 0.504479 6.59903C1.50958 2.18065 5.29928 -0.00250176 9.00381 2.15138e-06ZM2.11538 6.9641C2.91819 3.43601 5.9191 1.64967 9.00269 1.65176C12.0865 1.65384 15.0856 3.4445 15.8841 6.97286C16.8372 11.1828 14.2312 14.8426 11.7313 17.2433L11.7298 17.2447C10.2062 18.7152 7.79438 18.7173 6.25955 17.2436C3.76871 14.8428 1.16251 11.1742 2.11538 6.9641Z" fill="#161616"/>
</svg>
