<svg width="19" height="22" viewBox="0 0 19 22" fill="none" xmlns="http://www.w3.org/2000/svg">
<path d="M9.49842 21.1C10.0671 21.103 10.6226 20.9288 11.0876 20.6014C11.5522 20.2743 11.9034 19.8107 12.0924 19.2749C12.1978 19.0061 12.2559 18.7214 12.2644 18.4333H16.1653C16.7223 18.4333 17.2564 18.2121 17.6503 17.8182C18.0441 17.4244 18.2653 16.8903 18.2653 16.3333C18.2653 15.7764 18.0441 15.2422 17.6503 14.8484C17.2801 14.4782 16.7859 14.2605 16.2653 14.2357V11.184C16.7127 10.9179 17.1054 10.569 17.4223 10.1556C17.751 9.7269 17.9917 9.23741 18.1304 8.71531C18.2692 8.19322 18.3033 7.64884 18.2308 7.11351C18.1583 6.57818 17.9806 6.06248 17.708 5.5961C17.4353 5.12972 17.0732 4.72187 16.6423 4.39603C16.2114 4.07019 15.7203 3.8328 15.1973 3.69753C14.6743 3.56225 14.1297 3.53176 13.5949 3.60781C13.0773 3.68141 12.5788 3.85337 12.1261 4.11425C11.8933 4.01023 11.6539 3.92198 11.4093 3.85007C11.5334 3.5844 11.5982 3.29437 11.5987 3.00016V3C11.5987 2.44304 11.3774 1.9089 10.9836 1.51507C10.5898 1.12125 10.0556 0.9 9.49868 0.9C8.94173 0.9 8.40759 1.12125 8.01376 1.51507C7.61993 1.9089 7.39868 2.44304 7.39868 3V3.00016C7.39915 3.2945 7.46406 3.58465 7.58824 3.85042C6.20971 4.25784 4.99528 5.09349 4.12186 6.23784C3.22378 7.4145 2.73564 8.85284 2.73203 10.3331V10.3333V14.2357C2.21147 14.2605 1.7173 14.4782 1.34711 14.8484C0.95328 15.2422 0.732031 15.7764 0.732031 16.3333C0.732031 16.8903 0.95328 17.4244 1.34711 17.8182C1.74093 18.2121 2.27507 18.4333 2.83203 18.4333H6.7338C6.74562 18.7625 6.81618 19.0873 6.94242 19.3922C7.08142 19.7279 7.28521 20.0329 7.54214 20.2898C7.79907 20.5468 8.10411 20.7506 8.43982 20.8896C8.77545 21.0285 9.13516 21.1 9.49842 21.1ZM9.49842 21.1C9.49832 21.1 9.49823 21.1 9.49813 21.1L9.49868 21L9.49871 21.1C9.49861 21.1 9.49852 21.1 9.49842 21.1ZM10.0653 7.66673C10.0662 8.75383 10.4984 9.79615 11.2671 10.5648C12.0358 11.3335 13.0782 11.7658 14.1653 11.7667L14.1667 11.7666C14.3559 11.764 14.5447 11.7495 14.732 11.7232V15L14.732 15.0003C14.7326 15.2033 14.8135 15.3979 14.9571 15.5415C15.1007 15.6851 15.2953 15.7661 15.4984 15.7666H15.4987H16.1653C16.3156 15.7666 16.4598 15.8263 16.566 15.9326C16.6723 16.0389 16.732 16.183 16.732 16.3333C16.732 16.4836 16.6723 16.6277 16.566 16.734C16.4598 16.8403 16.3156 16.9 16.1653 16.9H2.83203C2.68174 16.9 2.53761 16.8403 2.43133 16.734C2.32506 16.6277 2.26536 16.4836 2.26536 16.3333C2.26536 16.183 2.32506 16.0389 2.43133 15.9326C2.5376 15.8263 2.68174 15.7666 2.83203 15.7666H3.49869L3.49898 15.7666C3.70206 15.7661 3.89665 15.6851 4.04024 15.5415C4.18384 15.3979 4.26477 15.2033 4.26536 15.0003V15V10.3334C4.26719 8.94601 4.81916 7.61593 5.80023 6.63486C6.78125 5.65384 8.11126 5.10188 9.49862 5.09999C9.95146 5.10087 10.4019 5.16221 10.8381 5.28223C10.3354 5.97416 10.064 6.8089 10.0653 7.66673ZM10.0653 7.66673L10.1653 7.66665L10.0653 7.66681C10.0653 7.66678 10.0653 7.66676 10.0653 7.66673ZM14.1653 5.09999H14.1653C14.673 5.09999 15.1692 5.25052 15.5913 5.53255C16.0134 5.81458 16.3424 6.21544 16.5366 6.68443C16.7309 7.15343 16.7817 7.6695 16.6827 8.16738C16.5836 8.66527 16.3392 9.1226 15.9802 9.48156C15.6213 9.84051 15.164 10.085 14.6661 10.184C14.1682 10.283 13.6521 10.2322 13.1831 10.0379C12.7141 9.84368 12.3133 9.5147 12.0312 9.09261C11.7492 8.67053 11.5987 8.17429 11.5987 7.66665V7.66663C11.5986 7.32955 11.6649 6.99575 11.7939 6.68431C11.9228 6.37287 12.1119 6.08989 12.3502 5.85153C12.5886 5.61318 12.8716 5.42413 13.183 5.29518C13.4944 5.16622 13.8282 5.0999 14.1653 5.09999ZM10.6525 18.7495L10.6524 18.7495L10.6509 18.7538C10.5678 18.9925 10.4121 19.1993 10.2056 19.3451C9.9991 19.4908 9.75213 19.5683 9.49935 19.5666L9.49897 19.5666C9.17209 19.5657 8.85887 19.4354 8.62773 19.2043C8.42035 18.9969 8.29416 18.7234 8.26971 18.4333H10.7278C10.7183 18.5416 10.6929 18.6482 10.6525 18.7495ZM9.49881 2.43333C9.61084 2.43336 9.72035 2.46659 9.8135 2.52883C9.90669 2.5911 9.97932 2.6796 10.0222 2.78314C10.0651 2.88669 10.0763 3.00062 10.0545 3.11055C10.0326 3.22047 9.97862 3.32144 9.89937 3.40069C9.82012 3.47994 9.71916 3.53391 9.60923 3.55577C9.49931 3.57764 9.38537 3.56642 9.28183 3.52353C9.17828 3.48064 9.08978 3.40801 9.02752 3.31482C8.96525 3.22163 8.93202 3.11207 8.93202 3C8.93253 2.84987 8.99239 2.70603 9.09855 2.59987C9.20475 2.49367 9.34863 2.43381 9.49881 2.43333Z" fill="#161616" stroke="#161616" stroke-width="0.2"/>
</svg>
