<svg width="21" height="20" viewBox="0 0 21 20" fill="none" xmlns="http://www.w3.org/2000/svg">
<path fill-rule="evenodd" clip-rule="evenodd" d="M6.62567 7.72979C6.62567 5.59335 8.35061 3.85578 10.4997 3.85578C12.6379 3.85578 14.3737 5.5916 14.3737 7.72979V7.73478C14.3619 9.81783 12.7229 11.5231 10.6392 11.5942C10.5927 11.5958 10.5462 11.5937 10.5001 11.5879C10.4986 11.5881 10.4989 11.588 10.5001 11.5879C10.4538 11.5937 10.4068 11.5958 10.3602 11.5942C8.28096 11.5233 6.62567 9.8212 6.62567 7.72979ZM10.4997 5.62373C9.33053 5.62373 8.39361 6.56625 8.39361 7.72979C8.39361 8.84801 9.26348 9.76037 10.3686 9.82486C10.4538 9.81857 10.544 9.81799 10.6332 9.82471C11.7319 9.7592 12.5981 8.8517 12.6057 7.72731C12.6044 6.56666 11.6606 5.62373 10.4997 5.62373Z" fill="#161616"/>
<path fill-rule="evenodd" clip-rule="evenodd" d="M8.26353 19.7488C3.81739 18.7331 0.5 14.7539 0.5 9.99994C0.5 4.47713 4.97713 0 10.4999 0C16.0228 0 20.4999 4.47713 20.4999 9.99994C20.4999 14.8639 17.0273 18.9168 12.426 19.8145C11.803 19.9363 11.159 20 10.4998 20C9.73056 20 8.98217 19.9132 8.26353 19.7488ZM2.26795 9.99994C2.26795 5.45353 5.95353 1.76795 10.4999 1.76795C15.0463 1.76795 18.7319 5.45353 18.7319 9.99994C18.7319 11.9208 18.074 13.688 16.9713 15.0885C16.6237 14.5399 16.1297 14.05 15.5239 13.6423L15.522 13.641C14.1058 12.6934 12.2834 12.2474 10.5066 12.2474C8.72954 12.2474 6.90401 12.6935 5.48002 13.6394L5.47562 13.6423C4.86993 14.0499 4.37598 14.5398 4.02839 15.0882C2.92576 13.6878 2.26795 11.9207 2.26795 9.99994ZM12.9637 17.8569C12.1858 18.1006 11.3582 18.2319 10.4999 18.2319C9.5745 18.2319 8.68472 18.0792 7.85444 17.7976C6.9304 17.4836 6.08051 17.0089 5.33554 16.4056C5.49688 15.9791 5.84792 15.5233 6.46043 15.1106C7.53402 14.3983 8.99837 14.0154 10.5066 14.0154C12.0157 14.0154 13.4747 14.3987 14.5379 15.1098C15.1511 15.5227 15.5025 15.9789 15.664 16.4056C14.8705 17.0482 13.958 17.5448 12.9637 17.8569Z" fill="#161616"/>
</svg>
