<svg width="16" height="17" viewBox="0 0 16 17" fill="none" xmlns="http://www.w3.org/2000/svg">
<path d="M10.111 10.7567L10.1111 10.7567C10.382 10.4872 10.5951 10.2753 10.731 10.1406M10.111 10.7567L10.8085 10.2187M10.111 10.7567L9.42618 11.4386C9.30642 11.3883 9.14679 11.3171 8.95509 11.2247C8.51151 11.0107 8.06884 10.7637 7.65842 10.4881C7.30675 10.252 6.99651 10.0064 6.73759 9.75396C6.45892 9.48226 6.18349 9.12702 5.91757 8.70625C5.6737 8.32035 5.45278 7.9039 5.25971 7.48648C5.17806 7.30998 5.11441 7.16232 5.07008 7.05378L5.68895 6.4344L5.68896 6.43439L10.111 10.7567ZM10.731 10.1406L10.8085 10.2187M10.731 10.1406C10.731 10.1406 10.731 10.1406 10.731 10.1406L10.8085 10.2187M10.731 10.1406C11.0873 9.78751 11.5095 9.60553 11.9376 9.60565C12.3658 9.60578 12.7882 9.788 13.1451 10.1416L13.0677 10.2197C12.3895 9.54776 11.4853 9.54784 10.8085 10.2187M2.01337 1.42119L2.01339 1.42117C2.37022 1.07024 2.7922 0.889723 3.22002 0.89C3.6478 0.890278 4.06998 1.0713 4.42734 1.42221C4.42735 1.42222 4.42736 1.42223 4.42737 1.42223L4.3503 1.50072L2.01337 1.42119ZM2.01337 1.42119C1.90016 1.53258 1.77598 1.67632 1.64123 1.84728M2.01337 1.42119L1.64123 1.84728M12.7612 14.7983L12.7612 14.7983C12.8142 14.7695 12.9092 14.7168 13.0321 14.647C13.2367 14.5308 13.4409 14.4108 13.6305 14.2938C13.7 14.2509 13.7663 14.2092 13.8289 14.1689C14.087 14.0028 14.2657 13.8706 14.3402 13.7954C14.5199 13.614 14.5979 13.4407 14.5989 13.2799C14.5998 13.1195 14.5242 12.9482 14.3478 12.7704C13.6999 12.1177 13.0632 11.4813 12.4347 10.8585C12.2635 10.6889 12.095 10.6151 11.9376 10.615C11.7801 10.6149 11.6121 10.6884 11.4415 10.8575L11.4415 10.8575C11.3062 10.9916 11.0935 11.203 10.8246 11.4706L10.0451 12.2467C9.82111 12.4699 9.4517 12.5418 9.16956 12.4237C9.03331 12.3708 8.80555 12.2731 8.51661 12.1337C8.03377 11.9009 7.55005 11.631 7.09585 11.3261C6.6982 11.0591 6.34025 10.7762 6.03301 10.4766C5.68954 10.1418 5.36715 9.72457 5.06437 9.24545C4.7945 8.81841 4.55349 8.36385 4.34365 7.91021C4.2181 7.63878 4.1294 7.42487 4.08403 7.30467M12.7612 14.7983L4.18655 7.26479M12.7612 14.7983L12.7588 14.7997C12.4862 14.9568 12.1036 15.0573 11.7099 15.0883C11.3161 15.1193 10.9249 15.0795 10.6362 14.9684L10.6363 14.9682L10.6299 14.9662C10.5402 14.9378 10.4131 14.8947 10.2309 14.8254C9.92334 14.7086 9.57901 14.5618 9.20712 14.3832C8.14252 13.8718 7.07776 13.2105 6.08546 12.385C5.68823 12.0545 5.31008 11.7033 4.95367 11.3307C4.66539 11.0293 4.3911 10.715 4.13048 10.389C3.26997 9.31264 2.59241 8.1577 2.07885 7.00282C1.89943 6.59932 1.75369 6.22567 1.63908 5.89183C1.57097 5.69345 1.52939 5.55582 1.51136 5.48836L1.51174 5.48826L1.50856 5.47945C1.40212 5.18427 1.37863 4.79425 1.42958 4.40749C1.48053 4.02077 1.60406 3.65136 1.77845 3.39611L1.77847 3.39613L1.77989 3.39394C1.81386 3.34161 1.86604 3.26257 1.93552 3.16022C2.05133 2.98966 2.17133 2.81953 2.28873 2.66189C2.33882 2.59463 2.38735 2.53115 2.43394 2.47203C2.54723 2.32828 2.64492 2.21573 2.72118 2.1407C2.89225 1.97246 3.06119 1.89909 3.21985 1.89931C3.3786 1.89952 3.54815 1.97342 3.72029 2.14247L3.72032 2.14249C3.9934 2.41048 5.18689 3.6048 5.61699 4.0386C5.80289 4.22626 5.882 4.39909 5.88243 4.55837C5.88286 4.71744 5.80486 4.88885 5.62068 5.07394L5.62066 5.07396C5.51637 5.1788 5.28877 5.40685 4.97413 5.72185C4.97413 5.72186 4.97412 5.72186 4.97412 5.72187L12.7612 14.7983ZM4.08403 7.30467C4.0839 7.30431 4.08376 7.30396 4.08363 7.3036L4.18655 7.26479M4.08403 7.30467C4.08418 7.30505 4.08433 7.30542 4.08448 7.3058L4.18655 7.26479M4.08403 7.30467C3.96789 7.01415 4.04584 6.65084 4.26448 6.43207M4.18655 7.26479C4.08642 7.01557 4.15403 6.69818 4.34229 6.50982L4.26448 6.43207M4.26448 6.43207L4.26449 6.43206C4.26448 6.43206 4.26448 6.43207 4.26448 6.43207ZM1.64123 1.84728C1.58857 1.9141 1.5345 1.98486 1.47925 2.05904M1.64123 1.84728L1.47925 2.05904M1.47925 2.05904C1.35197 2.22994 1.22371 2.41181 1.10051 2.59327M1.47925 2.05904L1.10051 2.59327M1.10051 2.59327C1.02721 2.70122 0.971186 2.78605 0.938654 2.83637M1.10051 2.59327L0.938654 2.83637M0.938654 2.83637C0.672184 3.2268 0.49709 3.7472 0.42664 4.27468C0.356438 4.80031 0.388658 5.34416 0.547422 5.78524C0.563698 5.8505 0.61221 6.00909 0.684466 6.21956C0.808548 6.58099 0.965032 6.98207 1.15662 7.41292C1.70311 8.64184 2.4239 9.87069 3.34215 11.0192C3.62109 11.3681 3.91501 11.705 4.22431 12.0283C4.60781 12.4292 5.01401 12.8065 5.43997 13.1609C6.5005 14.0432 7.63521 14.7478 8.77009 15.293C9.16803 15.4841 9.53852 15.6421 9.87245 15.7689C10.0718 15.8447 10.2187 15.8948 10.304 15.9209L0.938654 2.83637ZM6.33386 3.32812L6.33383 3.32809L6.2582 5.70823L6.33617 5.78581C6.33617 5.78581 6.33618 5.78581 6.33618 5.7858C6.70256 5.41761 6.89228 4.99182 6.89173 4.55824C6.89117 4.12473 6.70044 3.69813 6.33386 3.32812ZM13.2531 15.6796C13.2535 15.6793 13.2539 15.6791 13.2544 15.6788L13.1994 15.5835L13.2518 15.6803C13.2522 15.6801 13.2526 15.6798 13.2531 15.6796Z" fill="#161616" stroke="#161616" stroke-width="0.22"/>
</svg>
