
<svg width="16" height="16" viewBox="0 0 16 16" fill="none" xmlns="http://www.w3.org/2000/svg">
<path fill-rule="evenodd" clip-rule="evenodd" d="M5.50459 10.9358C5.50459 9.5576 6.62182 8.44037 8 8.44037C9.37818 8.44037 10.4954 9.5576 10.4954 10.9358C10.4954 12.314 9.37818 13.4312 8 13.4312C6.62182 13.4312 5.50459 12.314 5.50459 10.9358ZM8 9.76147C7.35145 9.76147 6.82569 10.2872 6.82569 10.9358C6.82569 11.5843 7.35145 12.1101 8 12.1101C8.64855 12.1101 9.17431 11.5843 9.17431 10.9358C9.17431 10.2872 8.64855 9.76147 8 9.76147Z" fill="#161616"/>
<path fill-rule="evenodd" clip-rule="evenodd" d="M13.0642 5.94697V5.06422C13.0642 3.81003 12.881 2.516 12.0924 1.537C11.2789 0.527147 9.94792 0 8 0C6.05208 0 4.72107 0.527147 3.9076 1.537C3.119 2.516 2.93578 3.81003 2.93578 5.06422V5.94697C2.11044 6.05482 1.42818 6.29821 0.927416 6.79897C0.166897 7.55949 0 8.73866 0 10.2018V11.6697C0 13.1329 0.166897 14.3121 0.927416 15.0726C1.68793 15.8331 2.86711 16 4.33028 16H11.6697C13.1329 16 14.3121 15.8331 15.0726 15.0726C15.8331 14.3121 16 13.1329 16 11.6697V10.2018C16 8.73866 15.8331 7.55949 15.0726 6.79897C14.5718 6.29821 13.8896 6.05482 13.0642 5.94697ZM4.93643 2.36575C4.44064 2.98124 4.25688 3.88906 4.25688 5.06422V5.8717C4.28127 5.87161 4.30573 5.87156 4.33028 5.87156H11.6697C11.6943 5.87156 11.7187 5.87161 11.7431 5.8717V5.06422C11.7431 3.88906 11.5594 2.98124 11.0636 2.36575C10.5926 1.78111 9.72181 1.3211 8 1.3211C6.27819 1.3211 5.40737 1.78111 4.93643 2.36575ZM1.3211 10.2018C1.3211 8.72922 1.52118 8.07353 1.86158 7.73313C2.20197 7.39274 2.85766 7.19266 4.33028 7.19266H11.6697C13.1423 7.19266 13.798 7.39274 14.1384 7.73313C14.4788 8.07353 14.6789 8.72922 14.6789 10.2018V11.6697C14.6789 13.1423 14.4788 13.798 14.1384 14.1384C13.798 14.4788 13.1423 14.6789 11.6697 14.6789H4.33028C2.85766 14.6789 2.20197 14.4788 1.86158 14.1384C1.52118 13.798 1.3211 13.1423 1.3211 11.6697V10.2018Z" fill="#161616"/>
</svg>
