<svg width="18" height="18" viewBox="0 0 18 18" fill="none" xmlns="http://www.w3.org/2000/svg">
<path fill-rule="evenodd" clip-rule="evenodd" d="M3.95928 0.209961C2.52505 0.209961 1.27396 1.00386 0.624693 2.16872C0.435981 2.50729 0.557466 2.93474 0.896038 3.12345C1.23461 3.31216 1.66206 3.19068 1.85077 2.8521C2.26206 2.11421 3.05407 1.61363 3.95928 1.61363H10.2758V8.70996C10.2758 9.18015 9.88819 9.56776 9.418 9.56776H8.63818C8.25057 9.56776 7.93635 9.88198 7.93635 10.2696C7.93635 10.6572 8.25057 10.9714 8.63818 10.9714H9.418C10.6634 10.9714 11.6795 9.95537 11.6795 8.70996V3.95308H12.4125C12.7171 3.95308 13.003 4.11805 13.1615 4.38958L13.1625 4.39128L13.9004 5.68167C13.1763 5.77819 12.6152 6.40042 12.6152 7.15033V9.48978C12.6152 10.3063 13.2804 10.9714 14.0969 10.9714H15.7345V12.609C15.7345 13.5159 15.0038 14.2467 14.0969 14.2467H13.9079C13.6126 13.3413 12.7614 12.687 11.7575 12.687C10.7535 12.687 9.9023 13.3413 9.607 14.2467H7.66937C7.37407 13.3413 6.52289 12.687 5.51892 12.687C4.51494 12.687 3.66377 13.3413 3.36847 14.2467H3.17947C2.27259 14.2467 1.54185 13.5159 1.54185 12.609C1.54185 12.2214 1.22763 11.9072 0.840019 11.9072C0.452406 11.9072 0.138184 12.2214 0.138184 12.609C0.138184 14.2912 1.49736 15.6503 3.17947 15.6503H3.36847C3.66377 16.5557 4.51494 17.21 5.51892 17.21C6.5229 17.21 7.37407 16.5557 7.66937 15.6503H9.607C9.9023 16.5557 10.7535 17.21 11.7575 17.21C12.7614 17.21 13.6126 16.5557 13.9079 15.6503H14.0969C15.779 15.6503 17.1382 14.2912 17.1382 12.609V8.70996C17.1382 8.58808 17.1064 8.4683 17.0461 8.36241L15.7126 6.02296L14.3786 3.69045L14.3763 3.68645C13.9731 2.99203 13.2303 2.54941 12.4125 2.54941H11.6795V0.911796C11.6795 0.524183 11.3652 0.209961 10.9776 0.209961H3.95928ZM14.0424 7.09585C14.0587 7.07959 14.0776 7.07235 14.0969 7.07235H14.6951L15.7345 8.89594V9.56776H14.0969C14.0776 9.56776 14.0587 9.56051 14.0424 9.54425C14.0262 9.52799 14.0189 9.50904 14.0189 9.48978V7.15033C14.0189 7.13107 14.0262 7.11212 14.0424 7.09585ZM5.51892 15.8063C5.04517 15.8063 4.66112 15.4222 4.66112 14.9485C4.66112 14.4783 5.04873 14.0907 5.51892 14.0907C5.9891 14.0907 6.37672 14.4783 6.37672 14.9485C6.37672 15.4222 5.99267 15.8063 5.51892 15.8063ZM11.7575 15.8063C11.2837 15.8063 10.8997 15.4222 10.8997 14.9485C10.8997 14.4783 11.2873 14.0907 11.7575 14.0907C12.2276 14.0907 12.6152 14.4783 12.6152 14.9485C12.6152 15.4222 12.2312 15.8063 11.7575 15.8063Z" fill="#161616"/>
<path d="M0.840019 4.88886C0.452406 4.88886 0.138184 5.20308 0.138184 5.5907C0.138184 5.97831 0.452406 6.29253 0.840019 6.29253H5.51892C5.90653 6.29253 6.22075 5.97831 6.22075 5.5907C6.22075 5.20308 5.90653 4.88886 5.51892 4.88886H0.840019Z" fill="#161616"/>
<path d="M0.840019 7.22831C0.452406 7.22831 0.138184 7.54253 0.138184 7.93014C0.138184 8.31776 0.452406 8.63198 0.840019 8.63198H3.95928C4.3469 8.63198 4.66112 8.31776 4.66112 7.93014C4.66112 7.54253 4.3469 7.22831 3.95928 7.22831H0.840019Z" fill="#161616"/>
<path d="M0.840019 9.56776C0.452406 9.56776 0.138184 9.88198 0.138184 10.2696C0.138184 10.6572 0.452406 10.9714 0.840019 10.9714H2.39965C2.78726 10.9714 3.10149 10.6572 3.10149 10.2696C3.10149 9.88198 2.78726 9.56776 2.39965 9.56776H0.840019Z" fill="#161616"/>
</svg>
