<svg width="21" height="21" viewBox="0 0 21 21" fill="none" xmlns="http://www.w3.org/2000/svg">
<path d="M14.3962 9.14531C14.7182 8.82263 14.7177 8.30002 14.395 7.97801C14.0723 7.656 13.5497 7.65655 13.2277 7.97922L9.38287 11.832L7.75687 10.1992C7.4352 9.87624 6.91258 9.87516 6.58958 10.1968C6.26657 10.5185 6.26549 11.0411 6.58716 11.3641L8.79741 13.5835C8.95219 13.739 9.16248 13.8264 9.38184 13.8265C9.60119 13.8266 9.81157 13.7394 9.96652 13.5841L14.3962 9.14531Z" fill="#51BF70"/>
<path fill-rule="evenodd" clip-rule="evenodd" d="M12.1887 1.39209C11.2417 0.593906 9.75327 0.588814 8.8094 1.39569L7.36035 2.63379L7.35596 2.63758C7.31619 2.67204 7.21314 2.73647 7.06221 2.79255C6.91117 2.84868 6.79155 2.86697 6.74097 2.86697H5.15436C3.72636 2.86697 2.55892 4.0344 2.55892 5.4624V7.03984C2.55892 7.08987 2.54091 7.20722 2.4853 7.35746C2.4309 7.50443 2.36744 7.61008 2.32998 7.65587L1.09515 9.11022L1.09251 9.11334C0.302495 10.0532 0.302495 11.5285 1.09251 12.4683L1.09515 12.4715L2.32999 13.9258C2.36745 13.9716 2.4309 14.0773 2.4853 14.2242C2.54091 14.3745 2.55892 14.4918 2.55892 14.5418V16.1101C2.55892 17.5381 3.72636 18.7056 5.15436 18.7056H6.74097C6.79725 18.7056 6.9169 18.7244 7.06426 18.7795C7.21167 18.8345 7.31412 18.8987 7.35596 18.9349L7.35807 18.9368L8.80711 20.184L8.81363 20.1896C9.76071 20.9879 11.2493 20.9929 12.1931 20.1858L12.1952 20.184L13.6442 18.9368L13.6463 18.9349C13.6861 18.9005 13.7892 18.8361 13.9401 18.78C14.0911 18.7238 14.2107 18.7056 14.2613 18.7056H15.8204C17.2484 18.7056 18.4159 17.5381 18.4159 16.1101V14.551C18.4159 14.4947 18.4347 14.3751 18.4898 14.2277C18.5448 14.0803 18.609 13.9779 18.6452 13.936L18.6471 13.9339L19.8943 12.4849L19.8999 12.4784C20.6982 11.5313 20.7032 10.0427 19.8961 9.09886L18.6471 7.64777L18.6452 7.64566C18.6108 7.60589 18.5464 7.50284 18.4903 7.35191C18.4341 7.20087 18.4159 7.08125 18.4159 7.03067V5.47157C18.4159 4.04357 17.2484 2.87614 15.8204 2.87614H14.2613C14.205 2.87614 14.0854 2.8573 13.938 2.80224C13.7906 2.74716 13.6882 2.68301 13.6463 2.64674L12.1952 1.39765L12.1887 1.39209ZM9.882 2.65055C10.2029 2.37617 10.7848 2.37043 11.1221 2.65208L12.5652 3.89425L12.5664 3.89534C12.7995 4.09698 13.0909 4.24799 13.3603 4.34864C13.6302 4.44949 13.9507 4.52695 14.2613 4.52695H15.8204C16.3367 4.52695 16.765 4.95529 16.765 5.47157V7.03067C16.765 7.33777 16.8431 7.65837 16.9428 7.92691C17.0425 8.19518 17.1933 8.49062 17.3969 8.72583L17.3977 8.72682L18.6414 10.1717L18.6421 10.1725C18.9158 10.4936 18.9213 11.0748 18.6399 11.4118L17.3977 12.8549L17.3968 12.8559C17.1951 13.0891 17.044 13.3805 16.9434 13.65C16.8425 13.9199 16.765 14.2404 16.765 14.551V16.1101C16.765 16.6264 16.3367 17.0547 15.8204 17.0547H14.2613C13.9542 17.0547 13.6336 17.1328 13.3651 17.2325C13.0968 17.3322 12.8014 17.483 12.5662 17.6865L12.5652 17.6874L11.1203 18.9311L11.1195 18.9318C10.7984 19.2055 10.2172 19.211 9.88019 18.9296L8.43712 17.6874L8.43605 17.6865C8.20293 17.4848 7.9115 17.3337 7.64203 17.2331C7.37211 17.1322 7.05154 17.0547 6.74097 17.0547H5.15436C4.63808 17.0547 4.20973 16.6264 4.20973 16.1101V14.5418C4.20973 14.2342 4.13145 13.9159 4.03344 13.6512C3.93502 13.3853 3.78859 13.0975 3.59655 12.867L3.59166 12.8612L2.35618 11.4061L2.35511 11.4049C2.08269 11.0793 2.08271 10.5024 2.35516 10.1768L2.35618 10.1756L3.59166 8.72046L3.59655 8.71465C3.78859 8.48419 3.93502 8.19642 4.03344 7.93053C4.13145 7.66577 4.20973 7.34749 4.20973 7.03984V5.4624C4.20973 4.94612 4.63808 4.51777 5.15436 4.51777H6.74097C7.04807 4.51777 7.36867 4.43977 7.63721 4.33998C7.90491 4.24051 8.19965 4.09014 8.43461 3.88725L9.882 2.65055Z" fill="#51BF70"/>
</svg>
