<svg width="21" height="21" viewBox="0 0 21 21" fill="none" xmlns="http://www.w3.org/2000/svg">
<path d="M10.5013 6.42593C10.9575 6.42593 11.3274 6.79582 11.3274 7.2521V11.6858C11.3274 12.1421 10.9575 12.512 10.5013 12.512C10.045 12.512 9.67509 12.1421 9.67509 11.6858V7.2521C9.67509 6.79582 10.045 6.42593 10.5013 6.42593Z" fill="#FD3D39"/>
<path d="M10.4963 13.4668C9.93865 13.4668 9.48657 13.9189 9.48657 14.4765C9.48657 15.0342 9.93865 15.4863 10.4963 15.4863H10.5046C11.0622 15.4863 11.5143 15.0342 11.5143 14.4765C11.5143 13.9189 11.0622 13.4668 10.5046 13.4668H10.4963Z" fill="#FD3D39"/>
<path fill-rule="evenodd" clip-rule="evenodd" d="M12.1966 1.41198C11.2572 0.599317 9.76602 0.610262 8.82126 1.40656L8.81669 1.41044L7.36251 2.65427C7.31647 2.69168 7.21144 2.75462 7.06485 2.80858C6.91485 2.8638 6.7942 2.88279 6.73752 2.88279H5.14946C3.72014 2.88279 2.55163 4.0513 2.55163 5.48061V7.03196C2.55163 7.08779 2.53325 7.20853 2.47977 7.35743C2.42697 7.50447 2.36597 7.60652 2.33159 7.64862L1.0957 9.10424L1.09306 9.10736C0.302314 10.0481 0.302314 11.5247 1.09306 12.4654L1.09569 12.4686L2.33494 13.9281L2.33897 13.9328C2.3646 13.9626 2.42488 14.0582 2.47928 14.2106C2.53282 14.3605 2.55163 14.4841 2.55163 14.5408V16.1106C2.55163 17.5399 3.72014 18.7084 5.14946 18.7084H6.75588C6.80688 18.7084 6.92747 18.7268 7.08114 18.7831C7.23118 18.838 7.33695 18.9012 7.38102 18.937L8.82145 20.1677L8.82411 20.17C9.76353 20.9827 11.2546 20.9717 12.1994 20.1754L12.2036 20.1718L13.6489 18.937C13.6949 18.8996 13.7999 18.8366 13.9466 18.7826C14.0966 18.7274 14.2173 18.7084 14.274 18.7084H15.8345C17.2638 18.7084 18.4323 17.5399 18.4323 16.1106V14.55C18.4323 14.4933 18.4513 14.3727 18.5065 14.2227C18.5605 14.076 18.6235 13.9709 18.6609 13.925L19.8917 12.4845L19.894 12.4818C20.7066 11.5424 20.6956 10.0513 19.8993 9.10652L19.8958 9.10228L18.6609 7.65704C18.6235 7.61106 18.5605 7.50598 18.5065 7.35928C18.4513 7.20929 18.4323 7.08863 18.4323 7.03196V5.47143C18.4323 4.04212 17.2638 2.87361 15.8345 2.87361H14.274C14.2164 2.87361 14.0926 2.85422 13.9393 2.7984C13.7889 2.74363 13.6834 2.68053 13.6396 2.64494L12.1966 1.41198ZM9.88801 2.6684L8.42309 3.92142C8.1922 4.11382 7.90376 4.26048 7.63567 4.35917C7.36799 4.45771 7.04802 4.53511 6.73752 4.53511H5.14946C4.6327 4.53511 4.20396 4.96385 4.20396 5.48061V7.03196C4.20396 7.33413 4.13055 7.64942 4.03486 7.91589C3.9393 8.18198 3.79481 8.4738 3.59939 8.7083L3.59452 8.71414L2.35789 10.1706L2.35682 10.1718C2.08416 10.4977 2.08416 11.0751 2.35682 11.401L2.35789 11.4023L3.59284 12.8567C3.79546 13.0928 3.94095 13.3905 4.03535 13.6548C4.13098 13.9226 4.20396 14.2396 4.20396 14.5408V16.1106C4.20396 16.6273 4.6327 17.0561 5.14946 17.0561H6.75588C7.06288 17.0561 7.38292 17.134 7.64921 17.2315C7.91611 17.3292 8.20844 17.4757 8.4414 17.6698L8.44922 17.6763L9.90432 18.9197C10.2129 19.1875 10.793 19.1981 11.1328 18.9135L11.1345 18.912L12.5884 17.6698C12.8193 17.4773 13.1077 17.3307 13.3758 17.232C13.6435 17.1334 13.9634 17.0561 14.274 17.0561H15.8345C16.3512 17.0561 16.78 16.6273 16.78 16.1106V14.55C16.78 14.2395 16.8574 13.9196 16.9559 13.6519C17.0546 13.3838 17.2013 13.0954 17.3937 12.8645L17.4002 12.8567L18.6436 11.4016C18.9114 11.093 18.9221 10.5129 18.6374 10.1731L18.6359 10.1714L17.3937 8.71752C17.2013 8.48664 17.0546 8.19819 16.9559 7.9301C16.8574 7.66243 16.78 7.34246 16.78 7.03196V5.47143C16.78 4.95467 16.3512 4.52593 15.8345 4.52593H14.274C13.9643 4.52593 13.6429 4.44893 13.374 4.351C13.1051 4.2531 12.8124 4.1065 12.5793 3.91218L12.5714 3.90567L11.1163 2.6623C10.8077 2.39456 10.2278 2.38386 9.88801 2.6684Z" fill="#FD3D39"/>
</svg>
