<svg width="13" height="20" viewBox="0 0 13 20" fill="none" xmlns="http://www.w3.org/2000/svg">
<path d="M0.344951 17.2279L0.344876 17.2277C-0.146209 15.9598 0.312135 14.4031 1.47243 13.357C1.47251 13.3569 1.47259 13.3568 1.47267 13.3567L5.38413 9.79091L1.47267 6.22507C1.4726 6.22502 1.47254 6.22496 1.47248 6.22491C0.312159 5.17874 -0.146207 3.62204 0.344862 2.35413C0.820553 1.12452 2.05523 0.440039 3.7082 0.440039H9.28454C10.9379 0.440039 12.1722 1.13339 12.6478 2.3539L12.6479 2.3541C13.139 3.62199 12.6806 5.1787 11.5203 6.22488C11.5202 6.22494 11.5202 6.22501 11.5201 6.22507L7.60871 9.79083L11.529 13.357L0.344951 17.2279ZM0.344951 17.2279C0.820592 18.4484 2.05482 19.1418 3.7082 19.1418H9.28454C10.9381 19.1418 12.1718 18.4483 12.6562 17.2285L12.6565 17.2277M0.344951 17.2279L12.6565 17.2277M12.6565 17.2277C13.1477 15.9594 12.6802 14.4028 11.529 13.357L12.6565 17.2277ZM11.2565 16.6823L11.2565 16.6824C11.0205 17.2962 10.3436 17.651 9.28454 17.651H3.7082C2.64998 17.651 1.97228 17.2881 1.73613 16.6822C1.4804 16.0186 1.77287 15.0963 2.47612 14.4515C2.4762 14.4515 2.47627 14.4514 2.47635 14.4513L6.49637 10.7952L10.5167 14.4516L10.5168 14.4517C11.228 15.0959 11.5126 16.0182 11.2565 16.6823ZM1.7362 2.89949L1.73623 2.89941C1.97229 2.28565 2.64914 1.93086 3.7082 1.93086H9.28454C10.3428 1.93086 11.0205 2.29377 11.2566 2.89967C11.5124 3.5633 11.2199 4.48557 10.5165 5.13036C10.5165 5.1304 10.5164 5.13044 10.5164 5.13049L6.49637 8.78659L2.47606 5.13022L2.47591 5.13009C1.76478 4.48588 1.48014 3.56363 1.7362 2.89949Z" fill="#FE9526" stroke="#FE9526" stroke-width="0.2"/>
</svg>
